<?xml version="1.0" encoding="UTF-8"?>
<svg width="512" height="512" viewBox="0 0 512 512" xmlns="http://www.w3.org/2000/svg">
  <!-- Fundo gradiente -->
  <defs>
    <linearGradient id="bgGradient" x1="0%" y1="0%" x2="100%" y2="100%">
      <stop offset="0%" style="stop-color:#667eea;stop-opacity:1" />
      <stop offset="100%" style="stop-color:#764ba2;stop-opacity:1" />
    </linearGradient>
    <linearGradient id="rocketGradient" x1="0%" y1="0%" x2="100%" y2="100%">
      <stop offset="0%" style="stop-color:#f093fb;stop-opacity:1" />
      <stop offset="100%" style="stop-color:#f5576c;stop-opacity:1" />
    </linearGradient>
    <radialGradient id="shieldGradient" cx="50%" cy="50%" r="50%">
      <stop offset="0%" style="stop-color:#4facfe;stop-opacity:1" />
      <stop offset="100%" style="stop-color:#00f2fe;stop-opacity:1" />
    </radialGradient>
  </defs>
  
  <!-- Círculo de fundo -->
  <circle cx="256" cy="256" r="240" fill="url(#bgGradient)"/>
  
  <!-- Escudo de segurança -->
  <path d="M 256 80 L 180 120 L 180 240 Q 180 340 256 400 Q 332 340 332 240 L 332 120 Z" 
        fill="url(#shieldGradient)" opacity="0.3"/>
  
  <!-- Foguete principal -->
  <g transform="translate(256, 256)">
    <!-- Corpo do foguete -->
    <path d="M -40 -80 L -40 40 L -60 80 L 0 100 L 60 80 L 40 40 L 40 -80 Z" 
          fill="url(#rocketGradient)"/>
    
    <!-- Janela -->
    <circle cx="0" cy="-20" r="25" fill="#ffffff" opacity="0.9"/>
    <circle cx="0" cy="-20" r="20" fill="#667eea" opacity="0.5"/>
    
    <!-- Chamas -->
    <path d="M -30 80 Q -40 100 -30 120 L -20 100 Z" fill="#ff6b6b" opacity="0.8"/>
    <path d="M 0 80 Q -10 110 0 130 L 10 110 Z" fill="#ffd93d" opacity="0.9"/>
    <path d="M 30 80 Q 40 100 30 120 L 20 100 Z" fill="#ff6b6b" opacity="0.8"/>
    
    <!-- Aletas -->
    <path d="M -40 20 L -80 60 L -40 60 Z" fill="#4a5568"/>
    <path d="M 40 20 L 80 60 L 40 60 Z" fill="#4a5568"/>
    
    <!-- Detalhes metálicos -->
    <rect x="-40" y="-60" width="80" height="4" fill="#ffffff" opacity="0.3"/>
    <rect x="-40" y="0" width="80" height="4" fill="#ffffff" opacity="0.3"/>
  </g>
  
  <!-- Estrelas ao redor -->
  <circle cx="120" cy="120" r="4" fill="#ffffff" opacity="0.8"/>
  <circle cx="390" cy="140" r="3" fill="#ffffff" opacity="0.7"/>
  <circle cx="100" cy="380" r="5" fill="#ffffff" opacity="0.9"/>
  <circle cx="400" cy="350" r="4" fill="#ffffff" opacity="0.8"/>
  <circle cx="150" cy="250" r="3" fill="#ffffff" opacity="0.6"/>
  <circle cx="370" cy="270" r="3" fill="#ffffff" opacity="0.7"/>
  
  <!-- Órbitas -->
  <circle cx="256" cy="256" r="200" fill="none" stroke="#ffffff" stroke-width="2" opacity="0.2" stroke-dasharray="10,10"/>
  <circle cx="256" cy="256" r="180" fill="none" stroke="#ffffff" stroke-width="1" opacity="0.15" stroke-dasharray="5,5"/>
</svg>
